<?xml version="1.0" standalone="no"?>
<!DOCTYPE svg PUBLIC "-//W3C//DTD SVG 20010904//EN"
 "http://www.w3.org/TR/2001/REC-SVG-20010904/DTD/svg10.dtd">
<svg version="1.0" xmlns="http://www.w3.org/2000/svg"
 width="1080.000000pt" height="1080.000000pt" viewBox="0 0 1080.000000 1080.000000"
 preserveAspectRatio="xMidYMid meet">

<g transform="translate(0.000000,1080.000000) scale(0.100000,-0.100000)"
fill="#000000" stroke="none">
<path d="M6534 8144 c-112 -59 -270 -214 -457 -446 -235 -293 -469 -663 -479
-758 -6 -51 78 -37 182 31 189 122 540 469 616 609 72 134 204 407 224 464 11
33 20 74 20 93 0 30 -3 33 -29 33 -15 0 -50 -12 -77 -26z"/>
<path d="M5258 7675 c-11 -11 -334 -97 -521 -139 -229 -51 -449 -91 -782 -141
-268 -41 -286 -42 -310 -15 -23 25 -102 27 -151 4 -31 -15 -40 -15 -136 5
-142 29 -255 67 -375 127 -56 27 -96 43 -90 34 7 -9 60 -74 119 -145 59 -72
164 -200 235 -285 70 -86 295 -358 498 -604 204 -247 399 -484 434 -528 l63
-79 342 7 c187 3 674 12 1081 18 l740 11 313 405 c172 223 323 419 335 435 11
17 -40 -30 -114 -103 -230 -229 -406 -362 -477 -362 -26 0 -42 8 -67 34 -81
86 -195 295 -217 396 -10 51 -9 62 14 132 l26 76 -96 -75 c-223 -174 -497
-335 -645 -378 -147 -43 -259 -3 -341 120 -69 104 -87 222 -62 411 26 198 74
360 170 567 19 42 32 77 27 77 -4 0 -10 -2 -13 -5z"/>
<path d="M7300 5036 c-105 -16 -279 -54 -295 -66 -5 -4 -28 -13 -50 -20 -73
-23 -236 -114 -316 -178 -90 -70 -154 -148 -217 -259 -119 -212 -152 -536 -81
-803 21 -79 85 -217 122 -263 12 -15 35 -44 51 -65 37 -46 171 -166 191 -170
8 -2 15 -7 15 -11 0 -12 189 -107 253 -127 31 -10 57 -20 57 -23 0 -3 -30 -17
-67 -31 -80 -30 -195 -103 -265 -168 -164 -153 -245 -377 -235 -647 10 -271
101 -468 291 -627 228 -191 611 -264 911 -173 83 25 170 78 191 116 10 19 12
14 19 -45 9 -92 12 -94 226 -106 96 -5 201 -12 235 -15 51 -5 64 -3 85 13 23
20 24 25 29 192 l5 171 39 -88 c146 -333 171 -385 189 -395 11 -5 130 -23 266
-38 212 -24 249 -26 268 -14 49 31 47 37 -162 450 l-199 390 201 270 c255 343
237 315 223 358 -12 38 -17 41 -105 55 -33 5 -138 24 -234 41 -96 17 -184 29
-196 26 -16 -4 -63 -67 -151 -203 l-129 -197 -5 222 c-5 204 -7 223 -25 241
-17 17 -54 24 -235 46 -118 13 -234 25 -257 25 -77 0 -73 40 -74 -700 l-1
-655 -38 193 c-21 107 -44 199 -50 207 -23 27 -60 27 -123 -3 -120 -56 -164
-67 -282 -67 -178 0 -277 50 -335 169 -31 62 -32 70 -28 158 6 128 46 203 138
260 91 55 258 80 403 59 153 -22 156 -16 118 247 -16 108 -26 200 -23 204 6 6
100 28 182 43 37 6 170 68 198 91 l22 19 -19 241 c-10 133 -21 247 -25 253
-11 18 -41 13 -144 -23 -144 -50 -250 -69 -377 -68 -235 2 -419 92 -497 246
-82 162 -43 371 96 505 165 158 446 211 801 151 87 -14 94 -10 89 53 -2 29 -9
156 -15 282 -6 127 -13 232 -14 233 -25 27 -492 40 -645 18z m233 -1995 c26
-4 50 -10 53 -13 6 -7 64 -390 64 -425 l0 -23 -137 6 c-167 8 -255 -5 -350
-51 -117 -57 -184 -152 -198 -283 -16 -158 52 -290 183 -356 134 -67 357 -59
511 18 59 30 88 33 94 9 3 -10 20 -99 38 -197 l33 -179 -38 -33 c-76 -65 -221
-104 -394 -104 -365 0 -662 164 -805 445 -116 229 -112 563 9 795 109 209 340
352 629 390 79 10 248 11 308 1z m637 -187 c124 -14 229 -30 235 -36 6 -5 8
-118 6 -301 -1 -161 -1 -290 2 -287 2 3 74 111 158 240 85 129 161 245 170
257 l16 23 224 -41 c264 -47 259 -46 259 -67 0 -10 -92 -141 -204 -292 -113
-151 -210 -284 -216 -296 -10 -18 13 -70 184 -406 108 -212 196 -392 196 -401
0 -10 -8 -17 -17 -17 -28 0 -477 51 -481 55 -2 1 -63 137 -135 301 -73 163
-137 299 -143 301 -8 3 -13 -70 -18 -239 -4 -133 -9 -244 -11 -247 -7 -6 -459
20 -466 27 -9 9 -21 1437 -12 1445 9 10 5 10 253 -19z"/>
<path d="M3945 4983 c-121 -8 -224 -18 -229 -23 -5 -5 -2 -101 8 -232 32 -423
56 -723 61 -778 7 -68 2 -63 -80 70 -205 332 -566 878 -586 885 -9 3 -119 -6
-245 -20 -383 -43 -391 -44 -385 -78 4 -27 101 -752 166 -1242 42 -319 78
-591 81 -604 5 -22 9 -23 52 -18 54 6 445 65 481 73 23 5 24 6 17 92 -4 48
-13 155 -21 237 -8 83 -24 251 -35 375 -11 124 -23 254 -26 290 l-7 65 29 -41
c16 -22 34 -48 39 -57 6 -9 44 -69 85 -132 41 -63 110 -170 152 -238 42 -67
82 -127 88 -134 5 -7 10 -14 10 -17 0 -2 18 -33 39 -67 22 -35 77 -126 123
-202 l83 -139 40 6 c22 2 144 15 270 27 127 12 235 27 242 33 10 9 9 89 -2
376 -14 356 -40 1046 -50 1344 -3 82 -8 153 -11 158 -7 11 -122 8 -389 -9z"/>
<path d="M4852 4808 c-79 -327 -103 -429 -123 -523 -11 -55 -25 -105 -30 -111
-5 -6 -6 -13 -3 -16 2 -3 -7 -57 -21 -119 -30 -130 -55 -242 -90 -414 -14 -66
-36 -174 -50 -240 -43 -200 -50 -256 -34 -266 8 -5 25 -7 39 -5 14 3 141 8
283 12 252 6 257 7 262 28 2 11 16 79 30 151 14 71 29 133 33 137 5 5 103 7
218 6 l209 -3 31 -175 30 -175 -72 -5 c-49 -3 -79 -10 -90 -21 -9 -9 -33 -89
-55 -185 -21 -93 -41 -173 -43 -179 -3 -5 -5 51 -5 126 -1 118 -3 138 -19 152
-16 14 -44 17 -187 17 -205 0 -698 -17 -890 -31 -77 -6 -156 -10 -175 -9 -60
1 -562 -39 -869 -70 -307 -31 -336 -38 -346 -83 -3 -12 -6 -67 -8 -122 l-2
-99 -33 143 c-17 80 -30 146 -28 149 12 12 -32 42 -62 42 -28 0 -408 -48 -522
-66 -32 -5 -30 -2 25 28 93 51 188 150 231 242 34 71 37 86 42 190 5 116 -6
191 -36 251 -59 120 -191 228 -342 279 -120 40 -364 92 -548 116 -111 15 -231
46 -254 67 -36 32 -13 87 47 110 91 36 223 38 365 7 90 -20 224 -65 232 -78 4
-6 8 -7 8 -3 0 4 9 3 21 -3 31 -17 61 -5 89 37 31 49 94 136 197 276 94 127
101 152 51 182 -18 10 -35 21 -38 25 -19 26 -183 95 -286 121 -258 65 -496 63
-734 -7 -88 -27 -289 -128 -365 -186 -124 -93 -228 -213 -263 -303 -63 -164
-19 -349 114 -481 125 -125 288 -179 659 -218 238 -26 307 -36 356 -53 113
-39 86 -134 -46 -164 -90 -20 -229 -6 -410 41 -88 23 -169 42 -180 43 -15 2
-42 -34 -117 -153 -141 -222 -170 -276 -166 -308 3 -24 17 -34 116 -84 61 -31
112 -55 112 -52 0 3 9 0 21 -6 11 -6 77 -23 147 -37 189 -38 367 -37 562 5 80
17 154 34 164 38 18 7 19 4 12 -36 -4 -24 -79 -368 -167 -764 -89 -397 -161
-734 -162 -749 0 -16 9 -37 21 -49 l21 -21 173 27 c281 44 295 47 315 65 13
12 26 56 42 143 l24 125 130 17 c71 9 132 15 134 12 3 -3 16 -62 29 -131 12
-70 28 -133 35 -141 15 -19 57 -18 294 7 204 20 227 27 240 69 3 10 -28 166
-69 346 -41 181 -86 383 -101 449 -14 66 -32 145 -40 175 -28 118 -30 107 21
108 45 0 233 18 287 27 l27 5 0 -549 c0 -541 0 -548 21 -567 24 -21 41 -21
235 0 76 9 165 19 196 22 99 10 92 -36 89 589 l-3 544 24 5 c29 6 304 24 500
32 l147 7 3 -546 3 -546 22 -22 22 -23 227 12 c171 9 234 16 251 27 l23 15 0
550 0 550 123 0 c67 0 140 3 161 7 23 3 37 2 34 -3 -3 -5 -38 -146 -77 -314
-38 -168 -91 -392 -116 -499 -25 -106 -45 -206 -45 -221 0 -57 13 -60 274 -60
287 0 272 -7 300 140 10 52 20 103 22 113 5 15 20 17 139 17 131 0 135 -1 140
-22 2 -13 12 -66 20 -118 20 -120 32 -156 53 -166 26 -12 464 -32 489 -23 12
5 25 20 29 35 6 23 -32 218 -102 519 -17 76 -201 917 -220 1009 -8 38 -19 77
-24 87 -6 10 -10 29 -10 42 0 24 -85 457 -154 787 -67 319 -105 495 -110 510
-3 8 -7 31 -9 50 -3 19 -7 42 -10 50 -3 8 -15 56 -25 105 -11 50 -32 145 -48
213 l-27 122 -476 0 -477 0 -32 -132z m563 -565 c-2 -6 0 -13 4 -15 7 -3 56
-238 67 -324 l4 -34 -126 0 -127 0 7 43 c7 44 100 453 118 522 l11 40 23 -110
c13 -60 21 -115 19 -122z m747 -1209 c31 -6 38 -11 43 -38 8 -34 106 -485 245
-1115 61 -276 88 -417 81 -424 -12 -12 -440 8 -453 21 -5 5 -20 73 -34 153
-14 79 -27 145 -27 145 -1 1 -78 3 -172 5 l-170 4 -26 -126 c-14 -69 -29 -131
-33 -137 -11 -18 -455 -17 -462 1 -2 7 33 177 80 378 220 946 257 1105 262
1122 5 16 29 17 317 17 172 0 329 -3 349 -6z m-837 -249 l0 -170 -155 -6 c-85
-4 -163 -7 -173 -8 -17 -1 -18 -26 -15 -563 l3 -563 -215 -12 c-118 -7 -221
-11 -227 -8 -10 3 -13 126 -13 569 l0 566 -142 -8 c-79 -4 -165 -7 -193 -7
l-50 0 -3 164 c-1 91 1 168 6 173 15 15 748 46 1037 44 l140 -1 0 -170z
m-1231 129 c14 -5 16 -30 16 -174 l0 -168 -32 -5 c-18 -3 -93 -9 -166 -13 -73
-4 -135 -11 -139 -16 -3 -6 -6 -261 -7 -567 l-1 -556 -213 -23 c-117 -13 -220
-21 -228 -18 -12 5 -14 87 -14 566 l0 560 -27 0 c-15 0 -96 -7 -180 -16 -83
-9 -159 -14 -167 -11 -14 5 -16 31 -16 165 0 116 3 162 13 170 13 11 515 62
852 87 250 18 289 21 292 23 1 1 8 -1 17 -4z m-1330 -42 c3 -5 25 -98 50 -208
25 -109 68 -302 97 -429 190 -839 196 -870 185 -882 -6 -6 -85 -18 -176 -27
-91 -9 -190 -19 -222 -23 l-56 -6 -11 54 c-6 30 -18 97 -26 149 -9 52 -18 96
-19 98 -2 1 -79 -8 -171 -20 l-168 -23 -26 -132 c-14 -73 -31 -137 -36 -143
-6 -5 -72 -19 -147 -30 -76 -12 -172 -27 -215 -34 -83 -15 -93 -14 -93 11 0
14 77 364 265 1208 42 187 79 343 83 347 6 6 227 39 582 87 90 12 98 12 104 3z"/>
<path d="M5850 2634 c0 -6 -23 -117 -50 -249 -40 -188 -48 -240 -38 -247 22
-13 188 -10 188 5 0 30 -84 483 -92 492 -5 5 -8 5 -8 -1z m49 -441 c1 -9 -16
-13 -50 -13 -43 0 -50 2 -45 18 2 9 15 67 28 127 l23 110 22 -115 c12 -63 22
-121 22 -127z"/>
<path d="M2376 2197 c-27 -133 -52 -250 -54 -259 -5 -22 15 -23 124 -7 l76 12
-4 31 c-11 78 -82 452 -87 458 -4 4 -28 -102 -55 -235z m75 -96 c11 -62 18
-115 15 -118 -3 -3 -25 -8 -49 -10 l-45 -5 26 126 c14 70 27 125 29 123 2 -2
12 -55 24 -116z"/>
<path d="M8403 4798 c-8 -11 -90 -578 -107 -743 -5 -45 -98 -753 -121 -920
-21 -155 -25 -142 48 -149 34 -3 175 -17 313 -31 139 -14 256 -25 261 -25 10
0 18 37 64 295 11 61 24 130 30 155 5 25 12 65 15 90 6 50 16 65 36 58 7 -3
35 -77 61 -164 27 -88 68 -224 92 -304 25 -80 49 -165 55 -190 6 -25 14 -55
17 -67 3 -12 11 -27 17 -32 7 -6 72 -19 146 -31 74 -11 210 -34 302 -50 209
-38 228 -38 228 -6 0 13 -37 136 -82 273 -45 136 -82 250 -83 253 -1 3 -9 22
-18 44 -9 21 -17 41 -17 45 0 8 -119 340 -133 368 -9 20 -4 28 43 70 30 26 68
62 86 78 18 17 54 49 81 71 26 23 84 73 128 110 44 38 82 71 85 74 3 3 32 27
65 55 33 27 66 56 73 63 8 7 61 51 118 98 144 119 144 122 -28 164 -383 92
-523 123 -554 123 -24 0 -46 -20 -343 -314 -9 -9 -69 -70 -133 -136 -65 -66
-125 -126 -134 -134 -19 -15 -23 -45 52 359 31 162 54 308 52 325 -3 31 -5 32
-68 44 -108 19 -607 93 -631 93 -3 0 -11 -6 -16 -12z"/>
<path d="M3916 1056 c-69 -26 -81 -46 -81 -134 0 -61 5 -86 23 -120 12 -23 22
-44 22 -46 0 -2 -25 -6 -55 -10 -107 -12 -209 -66 -240 -126 -8 -16 -15 -54
-15 -85 0 -51 3 -58 38 -93 46 -46 99 -62 202 -62 92 0 250 35 320 70 103 52
173 143 154 198 -13 38 -40 40 -47 5 -13 -68 -122 -148 -256 -190 -70 -22
-106 -27 -192 -28 -129 0 -149 11 -149 81 0 36 6 49 34 78 68 68 206 113 288
95 25 -6 46 -6 58 1 38 20 16 60 -32 60 -35 0 -55 29 -70 103 -15 70 -3 123
34 150 51 38 108 -7 152 -121 34 -88 75 -82 76 11 0 38 -25 83 -54 99 -13 7
-40 26 -60 41 -42 35 -96 43 -150 23z"/>
<path d="M6585 1049 c-72 -12 -123 -32 -189 -74 -70 -45 -96 -84 -96 -146 0
-41 4 -51 35 -78 20 -17 45 -31 55 -31 31 0 24 33 -10 52 -36 20 -39 49 -10
96 26 42 116 85 225 108 97 20 255 15 303 -10 46 -24 66 -59 55 -93 -13 -39
-100 -106 -170 -133 -69 -26 -209 -57 -218 -48 -7 6 37 76 80 127 47 58 65 71
95 71 16 0 30 5 30 10 0 19 -49 60 -71 60 -50 0 -130 -75 -145 -136 -4 -16
-16 -48 -26 -72 -15 -33 -24 -42 -37 -37 -11 3 -25 -3 -36 -15 -16 -18 -16
-22 -2 -43 14 -22 13 -28 -20 -96 -19 -40 -36 -87 -37 -104 -1 -31 1 -32 38
-32 35 0 44 5 73 43 18 24 33 48 33 53 0 16 -23 10 -47 -13 -16 -15 -23 -17
-23 -7 0 22 48 119 59 119 5 0 36 -37 68 -82 84 -120 171 -203 251 -241 89
-41 164 -47 225 -18 47 23 64 50 69 110 3 29 8 36 38 46 25 8 50 32 88 81 61
78 130 154 143 154 4 0 -7 -32 -26 -71 -58 -122 -23 -134 85 -26 40 39 69 63
65 52 -42 -115 -25 -195 42 -195 30 0 92 31 117 59 22 24 36 27 36 8 0 -31 49
-61 109 -65 68 -5 125 16 184 68 21 18 40 30 43 28 3 -3 -3 -24 -12 -47 -9
-23 -14 -45 -10 -48 17 -17 73 16 113 67 65 82 155 182 160 177 2 -3 -10 -34
-27 -70 -18 -36 -30 -74 -28 -84 7 -38 38 -25 103 44 59 63 90 80 66 36 -5
-11 -13 -42 -16 -69 -6 -41 -3 -53 15 -76 37 -48 100 -33 188 46 l52 48 0 -35
c0 -20 5 -39 10 -42 17 -10 11 -22 -12 -29 -23 -6 -23 -6 -3 -22 41 -31 152 3
243 75 94 75 138 175 95 213 -37 32 -62 39 -99 29 -20 -6 -35 -8 -33 -6 2 2
40 41 85 87 55 57 86 98 99 131 18 47 18 49 -2 75 -27 36 -93 42 -141 12 -39
-24 -92 -105 -144 -219 -21 -48 -49 -106 -61 -131 -26 -54 -176 -210 -202
-210 -26 0 -15 70 24 150 17 36 31 68 31 72 0 19 -68 6 -116 -22 l-53 -30 9
26 c15 37 12 74 -5 80 -32 13 -71 -10 -147 -83 -43 -42 -78 -74 -78 -71 0 3
11 31 26 63 29 67 26 85 -15 85 -26 0 -33 -7 -54 -49 -61 -120 -162 -208 -261
-227 -49 -9 -70 12 -55 55 8 22 16 27 44 27 43 0 138 48 170 86 33 38 34 91 3
112 -31 22 -44 20 -114 -13 -46 -22 -87 -55 -160 -129 -112 -113 -151 -142
-164 -123 -11 19 6 84 40 151 17 33 30 62 30 65 0 16 -71 1 -118 -26 -41 -23
-53 -27 -48 -14 23 61 14 95 -27 95 -26 0 -114 -68 -156 -120 -18 -23 -35 -39
-38 -37 -2 3 5 28 17 55 28 65 24 87 -15 87 -25 0 -33 -7 -48 -39 -34 -72 -98
-147 -158 -186 -102 -66 -185 -63 -162 6 8 23 16 29 46 30 49 4 141 49 172 85
14 18 25 43 25 60 0 30 -30 69 -52 69 -91 0 -249 -131 -272 -223 -9 -36 17
-91 50 -106 36 -16 118 -14 162 5 20 8 58 33 84 55 53 45 56 43 31 -18 -12
-28 -24 -43 -35 -43 -13 0 -18 -8 -18 -26 0 -60 -49 -91 -125 -80 -61 10 -171
67 -225 118 -53 50 -160 175 -160 186 0 4 35 13 78 19 194 29 335 125 335 228
0 24 -7 55 -17 69 -54 83 -228 124 -401 95z m2429 -48 c15 -24 -182 -257 -201
-238 -10 11 77 147 126 198 46 48 64 58 75 40z m-1914 -300 c0 -24 -119 -106
-142 -99 -12 4 59 75 95 95 26 15 47 16 47 4z m900 1 c0 -13 -63 -69 -97 -86
-47 -24 -60 -20 -32 10 51 56 129 102 129 76z m943 -10 c11 -16 -24 -87 -59
-123 -43 -44 -99 -84 -131 -93 -20 -6 -21 -4 -13 28 15 66 67 131 140 175 37
22 56 26 63 13z"/>
<path d="M1531 1039 c-144 -25 -221 -93 -221 -194 0 -38 5 -52 29 -76 17 -17
40 -29 55 -29 34 0 33 13 -4 43 -37 32 -39 65 -4 107 66 78 195 106 432 94
l139 -7 -14 -28 c-8 -17 -13 -50 -11 -81 3 -47 6 -53 27 -56 21 -3 23 -1 18
25 -7 39 18 87 65 124 27 22 38 38 36 53 -4 26 -52 34 -77 12 -15 -14 -28 -14
-121 0 -142 19 -284 25 -349 13z"/>
<path d="M1692 940 c-34 -21 -92 -103 -92 -131 0 -9 -18 -49 -40 -88 -54 -99
-95 -188 -111 -240 -15 -50 -4 -63 46 -59 41 4 121 108 83 108 -6 0 -22 -10
-35 -22 -35 -33 -29 -6 22 94 88 175 175 288 221 288 30 0 31 23 4 50 -25 25
-56 25 -98 0z"/>
<path d="M2583 878 c-10 -18 -25 -49 -33 -68 -19 -49 -28 -59 -50 -53 -13 3
-20 14 -20 29 0 58 -90 71 -185 25 -72 -34 -83 -45 -130 -138 -27 -53 -55 -90
-102 -133 -36 -33 -72 -60 -79 -60 -24 0 -16 71 14 130 31 61 33 119 5 142
-25 20 -113 14 -163 -11 -105 -54 -200 -155 -200 -212 0 -60 77 -106 131 -79
13 7 45 33 72 58 l47 46 0 -29 c0 -77 39 -107 109 -86 38 11 138 103 170 156
9 14 19 25 24 25 15 0 88 -51 94 -66 11 -28 -49 -97 -96 -109 -31 -8 -39 2
-15 19 28 22 5 43 -27 25 -53 -28 -67 -84 -24 -95 73 -18 207 53 236 125 12
29 -9 59 -65 92 -31 18 -58 40 -61 48 -13 34 114 121 179 121 18 0 22 -15 6
-25 -19 -12 -10 -35 13 -35 26 0 47 -17 47 -38 0 -7 -18 -35 -40 -61 -38 -45
-51 -81 -30 -81 6 0 10 -18 10 -40 0 -79 77 -91 163 -25 44 33 46 34 52 14 19
-60 135 -78 221 -34 85 43 163 127 150 161 -5 13 -18 5 -66 -40 -93 -89 -218
-134 -228 -83 -8 43 6 62 45 63 40 1 122 38 161 72 35 31 47 77 28 107 -43 66
-135 28 -274 -111 -146 -146 -182 -169 -182 -116 0 42 81 196 105 200 85 13
125 25 125 38 0 11 -15 14 -60 14 -68 0 -68 4 -15 65 36 41 31 79 -11 83 -26
3 -34 -2 -51 -30z m-611 -163 c8 -9 -195 -201 -231 -219 -31 -16 -31 -16 -31
10 0 56 101 161 189 195 49 19 64 22 73 14z m928 -20 c0 -25 -122 -107 -137
-91 -9 9 53 72 91 90 39 20 46 20 46 1z"/>
<path d="M4892 852 c-18 -15 -32 -35 -32 -44 0 -19 41 -35 60 -23 17 11 42 66
36 81 -8 21 -27 17 -64 -14z"/>
<path d="M9494 838 c-61 -47 -80 -78 -65 -107 8 -15 4 -27 -18 -57 -65 -89
-126 -147 -186 -175 -85 -41 -125 -38 -125 10 0 37 10 46 51 48 45 2 113 35
157 76 42 41 46 98 7 123 -22 15 -32 15 -68 4 -75 -22 -194 -123 -216 -183
-33 -86 3 -138 99 -145 50 -4 69 0 113 22 74 36 155 119 237 245 12 18 21 21
43 16 34 -9 34 -23 2 -57 -13 -15 -38 -48 -55 -74 -68 -109 -12 -189 96 -138
39 19 154 138 154 159 0 28 -33 15 -70 -28 -42 -47 -117 -103 -126 -94 -12 12
20 82 72 159 30 43 54 88 54 98 0 18 -7 20 -60 20 -33 0 -60 2 -60 5 0 3 9 23
20 45 11 22 20 42 20 45 0 14 -50 3 -76 -17z m-204 -139 c0 -26 -121 -112
-136 -96 -10 9 13 35 66 73 46 35 70 42 70 23z"/>
<path d="M5072 757 c-19 -6 -52 -33 -80 -65 -84 -96 -175 -192 -184 -192 -5 0
1 17 12 38 32 58 70 149 70 166 0 17 -30 36 -58 36 -12 0 -44 -32 -87 -87 -74
-95 -156 -173 -182 -173 -23 0 -12 65 26 146 34 72 40 121 16 130 -32 12 -70
-10 -143 -82 -42 -40 -77 -74 -79 -74 -1 0 10 28 23 61 30 73 26 91 -18 87
-31 -3 -32 -5 -80 -143 -26 -77 -51 -148 -54 -157 -4 -13 0 -18 16 -18 36 0
57 17 133 113 41 50 84 101 97 112 l23 20 -6 -20 c-3 -11 -15 -47 -27 -79 -26
-73 -21 -118 16 -134 57 -27 104 -6 192 85 34 35 62 62 62 60 0 -2 -16 -38
-35 -80 -32 -70 -42 -81 -113 -133 -101 -74 -138 -109 -173 -163 -37 -57 -37
-93 -3 -120 32 -25 64 -27 110 -5 52 25 98 85 164 215 33 65 64 119 68 119 4
0 36 25 72 57 65 56 65 56 70 30 7 -35 33 -65 66 -73 32 -8 93 9 120 34 14 13
30 17 57 14 24 -3 46 2 63 13 14 9 27 15 28 13 1 -2 8 -15 15 -30 19 -37 66
-46 115 -23 20 10 61 45 92 78 59 66 60 58 5 -52 -24 -47 -43 -69 -88 -99
-185 -126 -255 -237 -186 -292 22 -17 36 -20 66 -16 75 12 131 75 216 243 35
71 58 103 80 116 17 10 62 49 101 86 52 51 70 75 70 95 0 14 -3 26 -7 26 -5 0
-39 -32 -78 -71 -38 -38 -71 -66 -73 -61 -1 4 18 52 43 105 51 109 53 122 26
137 -40 21 -56 10 -134 -90 -44 -55 -96 -115 -118 -135 -99 -89 -102 10 -4
110 57 59 61 81 19 91 -32 8 -68 -16 -107 -74 -51 -73 -98 -122 -118 -122 -23
0 -23 -3 1 45 24 46 26 98 5 115 -8 7 -15 18 -15 26 0 18 -40 54 -59 53 -9 -1
-31 -6 -49 -12z m68 -66 c0 -10 3 -32 6 -48 5 -23 1 -35 -16 -51 -13 -12 -24
-33 -26 -47 -3 -28 -23 -49 -63 -66 -37 -15 -51 -4 -51 38 0 50 33 114 81 157
43 40 69 46 69 17z m-510 -377 c0 -4 -15 -32 -34 -63 -45 -73 -112 -139 -127
-124 -17 17 16 71 85 135 57 54 76 67 76 52z m770 0 c0 -21 -69 -130 -102
-159 -41 -38 -56 -43 -64 -21 -9 24 23 71 88 129 59 53 78 65 78 51z"/>
<path d="M3030 506 c-7 -9 -10 -28 -7 -42 3 -18 -5 -40 -29 -76 -39 -57 -41
-68 -16 -67 21 0 110 104 119 138 11 46 -38 81 -67 47z"/>
<path d="M5754 508 c-4 -6 -7 -26 -6 -43 1 -22 -10 -48 -33 -81 -40 -56 -42
-64 -16 -64 26 0 121 120 121 152 0 40 -47 67 -66 36z"/>
</g>
</svg>
